<svg xmlns="http://www.w3.org/2000/svg" xmlns:xlink="http://www.w3.org/1999/xlink" width="500" zoomAndPan="magnify" viewBox="0 0 375 374.999991" height="500" preserveAspectRatio="xMidYMid meet" version="1.0"><defs><clipPath id="id1"><path d="M 7.398438 2.089844 L 367 2.089844 L 367 371 L 7.398438 371 Z M 7.398438 2.089844 " clip-rule="nonzero"/></clipPath><clipPath id="id2"><path d="M 238 241 L 367 241 L 367 372.589844 L 238 372.589844 Z M 238 241 " clip-rule="nonzero"/></clipPath></defs><g clip-path="url(#id1)"><path fill="#f3603c" d="M 71.519531 238.667969 C 106.90625 238.667969 135.597656 268.085938 135.597656 304.378906 C 135.597656 340.648438 106.90625 370.089844 71.519531 370.089844 C 36.109375 370.089844 7.417969 340.648438 7.417969 304.378906 C 7.417969 268.085938 36.109375 238.667969 71.519531 238.667969 Z M 71.519531 2.089844 C 106.90625 2.089844 135.574219 31.53125 135.574219 67.800781 C 135.574219 104.09375 106.882812 133.511719 71.496094 133.511719 C 36.109375 133.511719 7.417969 104.09375 7.417969 67.800781 C 7.417969 31.53125 36.109375 2.089844 71.519531 2.089844 Z M 302.246094 2.089844 C 337.65625 2.089844 366.347656 31.53125 366.347656 67.800781 C 366.347656 104.09375 337.65625 133.511719 302.246094 133.511719 C 266.859375 133.511719 238.167969 104.09375 238.167969 67.800781 C 238.167969 31.53125 266.859375 2.089844 302.246094 2.089844 Z M 302.246094 2.089844 " fill-opacity="1" fill-rule="evenodd"/></g><g clip-path="url(#id2)"><path fill="#f3603c" d="M 366.347656 307 C 366.347656 308.074219 366.320312 309.152344 366.269531 310.226562 C 366.21875 311.300781 366.140625 312.371094 366.039062 313.441406 C 365.933594 314.511719 365.808594 315.578125 365.652344 316.640625 C 365.5 317.707031 365.320312 318.765625 365.113281 319.820312 C 364.910156 320.875 364.679688 321.925781 364.425781 322.96875 C 364.171875 324.011719 363.890625 325.046875 363.585938 326.074219 C 363.28125 327.105469 362.953125 328.125 362.597656 329.136719 C 362.246094 330.152344 361.867188 331.152344 361.46875 332.148438 C 361.066406 333.140625 360.640625 334.125 360.191406 335.09375 C 359.742188 336.066406 359.273438 337.027344 358.777344 337.976562 C 358.28125 338.925781 357.765625 339.859375 357.226562 340.78125 C 356.6875 341.707031 356.125 342.613281 355.542969 343.507812 C 354.960938 344.402344 354.355469 345.28125 353.730469 346.144531 C 353.105469 347.007812 352.460938 347.855469 351.796875 348.6875 C 351.128906 349.519531 350.445312 350.332031 349.742188 351.128906 C 349.035156 351.925781 348.3125 352.703125 347.570312 353.464844 C 346.828125 354.226562 346.070312 354.96875 345.292969 355.6875 C 344.515625 356.410156 343.722656 357.113281 342.910156 357.796875 C 342.101562 358.476562 341.273438 359.140625 340.429688 359.78125 C 339.585938 360.421875 338.730469 361.039062 337.859375 361.636719 C 336.984375 362.234375 336.101562 362.808594 335.199219 363.363281 C 334.300781 363.914062 333.386719 364.445312 332.460938 364.953125 C 331.539062 365.460938 330.601562 365.941406 329.652344 366.402344 C 328.703125 366.863281 327.746094 367.296875 326.777344 367.710938 C 325.804688 368.121094 324.828125 368.507812 323.839844 368.871094 C 322.851562 369.234375 321.855469 369.570312 320.851562 369.882812 C 319.847656 370.195312 318.839844 370.480469 317.820312 370.742188 C 316.804688 371.003906 315.78125 371.238281 314.75 371.449219 C 313.722656 371.660156 312.6875 371.84375 311.652344 372 C 310.613281 372.15625 309.574219 372.289062 308.527344 372.394531 C 307.484375 372.5 306.4375 372.578125 305.390625 372.632812 C 304.34375 372.683594 303.292969 372.710938 302.246094 372.710938 C 301.195312 372.710938 300.148438 372.683594 299.101562 372.632812 C 298.050781 372.578125 297.007812 372.5 295.960938 372.394531 C 294.917969 372.289062 293.878906 372.15625 292.839844 372 C 291.800781 371.84375 290.769531 371.660156 289.738281 371.449219 C 288.710938 371.238281 287.6875 371.003906 286.671875 370.742188 C 285.652344 370.480469 284.640625 370.195312 283.636719 369.882812 C 282.632812 369.570312 281.636719 369.234375 280.648438 368.871094 C 279.664062 368.507812 278.683594 368.121094 277.714844 367.710938 C 276.746094 367.296875 275.785156 366.863281 274.839844 366.402344 C 273.890625 365.941406 272.953125 365.460938 272.027344 364.953125 C 271.101562 364.445312 270.191406 363.914062 269.289062 363.363281 C 268.390625 362.808594 267.503906 362.234375 266.632812 361.636719 C 265.761719 361.039062 264.902344 360.421875 264.058594 359.78125 C 263.21875 359.140625 262.390625 358.476562 261.578125 357.796875 C 260.769531 357.113281 259.976562 356.410156 259.199219 355.6875 C 258.421875 354.96875 257.660156 354.226562 256.917969 353.464844 C 256.175781 352.703125 255.453125 351.925781 254.75 351.128906 C 254.046875 350.332031 253.359375 349.519531 252.695312 348.6875 C 252.027344 347.855469 251.382812 347.007812 250.757812 346.144531 C 250.132812 345.28125 249.53125 344.402344 248.945312 343.507812 C 248.363281 342.613281 247.804688 341.707031 247.265625 340.78125 C 246.726562 339.859375 246.207031 338.925781 245.714844 337.976562 C 245.21875 337.027344 244.746094 336.066406 244.296875 335.09375 C 243.851562 334.125 243.425781 333.140625 243.023438 332.148438 C 242.621094 331.152344 242.246094 330.152344 241.890625 329.136719 C 241.539062 328.125 241.207031 327.105469 240.90625 326.074219 C 240.601562 325.046875 240.320312 324.011719 240.066406 322.96875 C 239.808594 321.925781 239.582031 320.875 239.375 319.820312 C 239.171875 318.765625 238.992188 317.707031 238.839844 316.640625 C 238.683594 315.578125 238.554688 314.511719 238.453125 313.441406 C 238.351562 312.371094 238.273438 311.300781 238.222656 310.226562 C 238.167969 309.152344 238.144531 308.074219 238.144531 307 C 238.144531 305.925781 238.167969 304.851562 238.222656 303.777344 C 238.273438 302.703125 238.351562 301.628906 238.453125 300.558594 C 238.554688 299.488281 238.683594 298.421875 238.839844 297.359375 C 238.992188 296.296875 239.171875 295.234375 239.375 294.179688 C 239.582031 293.125 239.808594 292.078125 240.066406 291.035156 C 240.320312 289.992188 240.601562 288.953125 240.90625 287.925781 C 241.207031 286.898438 241.539062 285.875 241.890625 284.863281 C 242.246094 283.851562 242.621094 282.847656 243.023438 281.855469 C 243.425781 280.859375 243.851562 279.878906 244.296875 278.90625 C 244.746094 277.933594 245.21875 276.972656 245.714844 276.023438 C 246.207031 275.078125 246.722656 274.140625 247.265625 273.21875 C 247.804688 272.296875 248.363281 271.386719 248.945312 270.492188 C 249.53125 269.597656 250.132812 268.71875 250.757812 267.855469 C 251.382812 266.992188 252.027344 266.144531 252.695312 265.3125 C 253.359375 264.484375 254.046875 263.667969 254.75 262.871094 C 255.453125 262.074219 256.175781 261.296875 256.917969 260.535156 C 257.660156 259.777344 258.421875 259.035156 259.199219 258.3125 C 259.976562 257.589844 260.769531 256.886719 261.578125 256.207031 C 262.390625 255.523438 263.21875 254.863281 264.058594 254.222656 C 264.902344 253.582031 265.761719 252.960938 266.632812 252.363281 C 267.503906 251.765625 268.390625 251.191406 269.289062 250.636719 C 270.191406 250.085938 271.101562 249.554688 272.027344 249.046875 C 272.953125 248.542969 273.890625 248.058594 274.839844 247.597656 C 275.785156 247.140625 276.746094 246.703125 277.714844 246.292969 C 278.683594 245.878906 279.664062 245.492188 280.648438 245.128906 C 281.636719 244.769531 282.632812 244.429688 283.636719 244.117188 C 284.640625 243.808594 285.652344 243.519531 286.671875 243.257812 C 287.6875 242.996094 288.710938 242.761719 289.738281 242.550781 C 290.769531 242.34375 291.800781 242.160156 292.839844 242 C 293.878906 241.84375 294.917969 241.710938 295.960938 241.605469 C 297.007812 241.5 298.050781 241.421875 299.101562 241.367188 C 300.148438 241.316406 301.195312 241.289062 302.246094 241.289062 C 303.292969 241.289062 304.34375 241.316406 305.390625 241.367188 C 306.4375 241.421875 307.484375 241.5 308.527344 241.605469 C 309.574219 241.710938 310.613281 241.84375 311.652344 242 C 312.6875 242.160156 313.722656 242.34375 314.75 242.550781 C 315.78125 242.761719 316.804688 242.996094 317.820312 243.257812 C 318.839844 243.519531 319.847656 243.808594 320.851562 244.117188 C 321.855469 244.429688 322.851562 244.769531 323.839844 245.128906 C 324.828125 245.492188 325.804688 245.878906 326.777344 246.292969 C 327.746094 246.703125 328.703125 247.140625 329.652344 247.597656 C 330.601562 248.058594 331.539062 248.542969 332.460938 249.046875 C 333.386719 249.554688 334.300781 250.085938 335.199219 250.636719 C 336.101562 251.191406 336.984375 251.765625 337.859375 252.363281 C 338.730469 252.960938 339.585938 253.582031 340.429688 254.222656 C 341.273438 254.863281 342.101562 255.523438 342.910156 256.207031 C 343.722656 256.886719 344.515625 257.589844 345.292969 258.3125 C 346.070312 259.035156 346.828125 259.777344 347.570312 260.535156 C 348.3125 261.296875 349.035156 262.074219 349.742188 262.871094 C 350.445312 263.667969 351.128906 264.484375 351.796875 265.3125 C 352.460938 266.144531 353.105469 266.992188 353.730469 267.855469 C 354.355469 268.71875 354.960938 269.597656 355.542969 270.492188 C 356.125 271.386719 356.6875 272.296875 357.226562 273.21875 C 357.765625 274.140625 358.28125 275.078125 358.777344 276.023438 C 359.273438 276.972656 359.742188 277.933594 360.191406 278.90625 C 360.640625 279.878906 361.066406 280.859375 361.46875 281.855469 C 361.867188 282.847656 362.246094 283.851562 362.597656 284.863281 C 362.953125 285.875 363.28125 286.898438 363.585938 287.925781 C 363.890625 288.953125 364.171875 289.992188 364.425781 291.035156 C 364.679688 292.078125 364.910156 293.125 365.113281 294.179688 C 365.320312 295.234375 365.5 296.296875 365.652344 297.359375 C 365.808594 298.421875 365.933594 299.488281 366.039062 300.558594 C 366.140625 301.628906 366.21875 302.703125 366.269531 303.777344 C 366.320312 304.851562 366.347656 305.925781 366.347656 307 Z M 366.347656 307 " fill-opacity="0.498" fill-rule="nonzero"/></g></svg>